<svg  viewBox="0 0 18.9999 18.9999" fill="none" xmlns="http://www.w3.org/2000/svg">
<path id="Icon" d="M8 0C12.4183 0 16 3.58172 16 8C16 9.84851 15.3732 11.5507 14.3203 12.9053L18.707 17.293C19.0976 17.6835 19.0976 18.3165 18.707 18.707C18.3165 19.0976 17.6835 19.0976 17.293 18.707L12.9053 14.3203C11.5507 15.3732 9.84851 16 8 16C3.58172 16 0 12.4183 0 8C0 3.58172 3.58172 0 8 0ZM8 2C4.68629 2 2 4.68629 2 8C2 11.3137 4.68629 14 8 14C11.3137 14 14 11.3137 14 8C14 4.68629 11.3137 2 8 2Z" fill="var(--fill-0, #191919)"/>
</svg>
