<svg preserveAspectRatio="none" width="100%" height="100%" overflow="visible" style="display: block;" viewBox="0 0 20 20" fill="none" xmlns="http://www.w3.org/2000/svg">
<path id="Icon" d="M10 0C15.5228 4.83564e-07 20 4.47715 20 10C20 15.5228 15.5228 20 10 20C4.47715 20 4.82823e-07 15.5228 0 10C5.47989e-07 4.47715 4.47715 4.82823e-07 10 0ZM10 2C5.58172 2 2 5.58172 2 10C2 14.4183 5.58172 18 10 18C14.4183 18 18 14.4183 18 10C18 5.58172 14.4183 2 10 2ZM10 13C10.5523 13 11 13.4477 11 14C11 14.5523 10.5523 15 10 15C9.44772 15 9 14.5523 9 14C9 13.4477 9.44772 13 10 13ZM10 5C10.5523 5 11 5.44772 11 6V10C11 10.5523 10.5523 11 10 11C9.44772 11 9 10.5523 9 10V6C9 5.44772 9.44772 5 10 5Z" fill="var(--fill-0, #D84D4D)"/>
</svg>
