<svg  viewBox="0 0 20.1717 20.1709" fill="none" xmlns="http://www.w3.org/2000/svg">
<path id="Icon" d="M11.8783 0.878373C13.0499 -0.292735 14.95 -0.292847 16.1215 0.878373L19.2934 4.04927C20.4646 5.22072 20.4644 7.1209 19.2934 8.29244L9.70742 17.8784C9.57939 18.0063 9.41816 18.0971 9.24258 18.1411L1.24258 20.1411C0.902115 20.2261 0.541675 20.1263 0.293361 19.8784C0.0452224 19.6301 -0.055335 19.2688 0.0296889 18.9282L2.02969 10.9282C2.07369 10.7527 2.16546 10.5913 2.29336 10.4633L11.8783 0.878373ZM3.90274 11.6821L2.37442 17.7963L8.48867 16.268L14.5863 10.1704L10.0004 5.5854L3.90274 11.6821ZM14.7074 2.29244C14.317 1.90228 13.6838 1.90242 13.2934 2.29244L11.4145 4.17037L16.0004 8.7563L17.8783 6.87837C18.2684 6.48786 18.2686 5.85374 17.8783 5.46333L14.7074 2.29244Z" fill="var(--fill-0, #835DE1)"/>
</svg>
