<svg  viewBox="0 0 20.1721 20.1712" fill="none" xmlns="http://www.w3.org/2000/svg">
<path id="Icon" d="M11.8794 0.878616C13.051 -0.292829 14.9501 -0.292915 16.1216 0.878616L19.2935 4.04951C20.465 5.22104 20.4649 7.12109 19.2935 8.29268L9.70752 17.8786C9.57937 18.0068 9.4185 18.0974 9.24268 18.1413L1.24268 20.1413C0.902042 20.2264 0.541813 20.1268 0.293461 19.8786C0.0450811 19.6302 -0.0554042 19.2692 0.0297896 18.9284L2.02979 10.9284C2.07377 10.7527 2.16538 10.5926 2.29346 10.4646L11.8794 0.878616ZM3.90284 11.6823L2.37452 17.7966L8.48877 16.2683L14.5864 10.1716L10.0005 5.58565L3.90284 11.6823ZM14.7075 2.29268C14.317 1.9022 13.684 1.90228 13.2935 2.29268L11.4146 4.17158L16.0005 8.75752L17.8794 6.87862C18.2697 6.48821 18.2695 5.85507 17.8794 5.46455L14.7075 2.29268Z" fill="var(--fill-0, #191919)"/>
</svg>
