<svg preserveAspectRatio="none" width="100%" height="100%" overflow="visible" style="display: block;" viewBox="0 0 15.9998 15.9998" fill="none" xmlns="http://www.w3.org/2000/svg">
<path id="Icon" d="M14.2929 0.29284C14.6834 -0.0975778 15.3165 -0.0976488 15.707 0.29284C16.0974 0.683332 16.0974 1.31638 15.707 1.7069L9.41399 7.99987L15.707 14.2928C16.0974 14.6833 16.0974 15.3164 15.707 15.7069C15.3164 16.0974 14.6834 16.0974 14.2929 15.7069L7.99992 9.41393L1.70696 15.7069C1.31645 16.0974 0.683421 16.0974 0.292893 15.7069C-0.097631 15.3164 -0.0976311 14.6834 0.292893 14.2928L6.58586 7.99987L0.292893 1.7069C-0.0976311 1.31638 -0.0976311 0.683364 0.292893 0.29284C0.683426 -0.0975776 1.31647 -0.0976488 1.70696 0.29284L7.99992 6.58581L14.2929 0.29284Z" fill="var(--fill-0, #949494)"/>
</svg>
