<svg  viewBox="0 0 18 22" fill="none" xmlns="http://www.w3.org/2000/svg">
<path id="Icon" d="M15 0C16.6569 0 18 1.34315 18 3V19C18 20.6569 16.6569 22 15 22H3C1.34315 22 0 20.6569 0 19V3C2.57702e-07 1.34315 1.34315 0 3 0H15ZM3 2C2.44772 2 2 2.44772 2 3V19C2 19.5523 2.44772 20 3 20H4V2H3ZM6 2V20H15C15.5523 20 16 19.5523 16 19V3C16 2.44772 15.5523 2 15 2H6ZM13 15C13.5523 15 14 15.4477 14 16C14 16.5523 13.5523 17 13 17H9C8.44771 17 8 16.5523 8 16C8 15.4477 8.44771 15 9 15H13ZM13 10C13.5523 10 14 10.4477 14 11C14 11.5523 13.5523 12 13 12H9C8.44771 12 8 11.5523 8 11C8 10.4477 8.44771 10 9 10H13ZM13 5C13.5523 5 14 5.44772 14 6C14 6.55228 13.5523 7 13 7H9C8.44771 7 8 6.55228 8 6C8 5.44772 8.44771 5 9 5H13Z" fill="var(--fill-0, #191919)"/>
</svg>
