<svg preserveAspectRatio="none" width="100%" height="100%" overflow="visible" style="display: block;" viewBox="0 0 20.1712 20.1719" fill="none" xmlns="http://www.w3.org/2000/svg">
<path id="Icon" d="M11.8785 0.87842C13.05 -0.292861 14.9492 -0.292752 16.1207 0.87842L19.2926 4.0503C20.4641 5.22181 20.464 7.1209 19.2926 8.29248L9.70664 17.8784C9.57857 18.0065 9.41847 18.0981 9.24278 18.1421L1.24278 20.1421C0.902001 20.2273 0.540961 20.1268 0.292581 19.8784C0.0443571 19.6301 -0.055257 19.2699 0.0298853 18.9292L2.02989 10.9292C2.07384 10.7534 2.16442 10.5925 2.29258 10.4644L11.8785 0.87842ZM3.90293 11.6831L2.37461 17.7974L8.48887 16.269L14.5855 10.1714L9.99961 5.58545L3.90293 11.6831ZM14.7066 2.29248C14.3162 1.90236 13.683 1.90225 13.2926 2.29248L11.4137 4.17139L15.9996 8.75733L17.8785 6.87842C18.2689 6.48788 18.269 5.85482 17.8785 5.46436L14.7066 2.29248Z" fill="var(--fill-0, #835DE1)"/>
</svg>
