<svg  viewBox="0 0 16.666 16.666" fill="none" xmlns="http://www.w3.org/2000/svg">
<path id="Icon" d="M10 0C11.3806 0.000176065 12.5 1.1194 12.5 2.5V3.33301H15.833C16.2931 3.33301 16.6658 3.70593 16.666 4.16602C16.666 4.62625 16.2932 5 15.833 5H15V14.166C15 15.5466 13.8806 16.6658 12.5 16.666H4.16602C2.78545 16.6658 1.66602 15.5466 1.66602 14.166V5H0.833008C0.372771 5 0 4.62625 0 4.16602C0.000175883 3.70593 0.372879 3.33301 0.833008 3.33301H4.16602V2.5C4.16602 1.1194 5.28545 0.000175839 6.66602 0H10ZM3.33301 14.166C3.33301 14.6261 3.70593 14.9998 4.16602 15H12.5C12.9601 14.9998 13.333 14.6261 13.333 14.166V5H3.33301V14.166ZM6.66602 6.66602C7.12625 6.66602 7.5 7.03976 7.5 7.5V12.5C7.49982 12.9601 7.12614 13.333 6.66602 13.333C6.20604 13.3328 5.83318 12.96 5.83301 12.5V7.5C5.83301 7.03987 6.20593 6.66619 6.66602 6.66602ZM10 6.66602C10.4601 6.66619 10.833 7.03987 10.833 7.5V12.5C10.8328 12.96 10.46 13.3328 10 13.333C9.53987 13.333 9.16619 12.9601 9.16602 12.5V7.5C9.16602 7.03976 9.53976 6.66602 10 6.66602ZM6.66602 1.66602C6.20593 1.66619 5.83301 2.03987 5.83301 2.5V3.33301H10.833V2.5C10.833 2.03987 10.4601 1.66619 10 1.66602H6.66602Z" fill="var(--fill-0, #191919)"/>
</svg>
