<svg  viewBox="0 0 18.334 18.334" fill="none" xmlns="http://www.w3.org/2000/svg">
<path id="Icon" d="M5 10.834C6.38071 10.834 7.5 11.9533 7.5 13.334V15.834C7.49982 17.2145 6.3806 18.334 5 18.334H2.5C1.11955 18.3338 0.000175467 17.2144 0 15.834V13.334C0 11.9534 1.11944 10.8342 2.5 10.834H5ZM2.5 12.5C2.03991 12.5002 1.66699 12.8739 1.66699 13.334V15.834C1.66717 16.294 2.04002 16.6668 2.5 16.667H5C5.46013 16.667 5.83381 16.2941 5.83398 15.834V13.334C5.83398 12.8737 5.46024 12.5 5 12.5H2.5ZM14.4111 9.41113C14.7366 9.0857 15.2644 9.0857 15.5898 9.41113L17.2559 11.0781C17.5813 11.4036 17.5813 11.9304 17.2559 12.2559C16.9304 12.5813 16.4036 12.5813 16.0781 12.2559L15.834 12.0117V14.167C15.834 15.5476 14.7145 16.6668 13.334 16.667H10.417C9.95686 16.667 9.58416 16.2941 9.58398 15.834C9.58398 15.3737 9.95675 15 10.417 15H13.334C13.7941 14.9998 14.167 14.6271 14.167 14.167V12.0117L13.9229 12.2559C13.5974 12.5813 13.0696 12.5813 12.7441 12.2559C12.4191 11.9305 12.4191 11.4035 12.7441 11.0781L14.4111 9.41113ZM7.91699 1.66699C8.37712 1.66699 8.74982 2.03991 8.75 2.5C8.75 2.96024 8.37723 3.33398 7.91699 3.33398H5C4.53991 3.33416 4.16699 3.70686 4.16699 4.16699V6.32227L4.41113 6.07812C4.73657 5.75269 5.26441 5.75269 5.58984 6.07812C5.91485 6.40348 5.91485 6.93051 5.58984 7.25586L3.92285 8.92285C3.59741 9.24829 3.06958 9.24829 2.74414 8.92285L1.07812 7.25586C0.752688 6.93042 0.752688 6.40356 1.07812 6.07812C1.40356 5.75269 1.93042 5.75269 2.25586 6.07812L2.5 6.32227V4.16699C2.5 2.78639 3.61944 1.66717 5 1.66699H7.91699ZM15.834 0C17.2144 0.000175467 18.3338 1.11955 18.334 2.5V5C18.334 6.3806 17.2145 7.49982 15.834 7.5H13.334C11.9533 7.5 10.834 6.38071 10.834 5V2.5C10.8342 1.11944 11.9534 0 13.334 0H15.834ZM13.334 1.66699C12.8739 1.66699 12.5002 2.03991 12.5 2.5V5C12.5 5.46024 12.8737 5.83398 13.334 5.83398H15.834C16.2941 5.83381 16.667 5.46013 16.667 5V2.5C16.6668 2.04002 16.294 1.66717 15.834 1.66699H13.334Z" fill="var(--fill-0, #191919)"/>
</svg>
