<svg  viewBox="0 0 19.9995 16.666" fill="none" xmlns="http://www.w3.org/2000/svg">
<path id="Icon" d="M1.91004 6.07715C2.23547 5.75179 2.76333 5.75178 3.08875 6.07715L4.75575 7.74414C5.08073 8.06949 5.08073 8.59652 4.75575 8.92188C4.43033 9.24729 3.90248 9.24725 3.57704 8.92188L3.34168 8.6875C3.52608 12.2045 6.43699 15 9.99989 15C11.9735 14.9999 13.7459 14.1427 14.9677 12.7783C15.2745 12.4356 15.8015 12.4063 16.1444 12.7129C16.4872 13.0199 16.5167 13.5468 16.2098 13.8896C14.6852 15.5925 12.4674 16.6659 9.99989 16.666C5.51099 16.666 1.85049 13.1172 1.67274 8.67188L1.42176 8.92188C1.09634 9.24724 0.569453 9.24723 0.244028 8.92188C-0.0813427 8.59645 -0.0813425 8.06956 0.244028 7.74414L1.91004 6.07715ZM9.99989 0C14.4886 0.000237188 18.1483 3.54903 18.3261 7.99414L18.577 7.74414C18.9025 7.41877 19.4303 7.41872 19.7557 7.74414C20.0807 8.06949 20.0807 8.59652 19.7557 8.92188L18.0888 10.5889C17.7633 10.9142 17.2355 10.9142 16.91 10.5889L15.244 8.92188C14.9187 8.59645 14.9187 8.06956 15.244 7.74414C15.5695 7.41878 16.0963 7.41877 16.4218 7.74414L16.6561 7.97852C16.4717 4.46173 13.5625 1.66625 9.99989 1.66602C8.02709 1.66602 6.2549 2.52242 5.03309 3.88574C4.726 4.2283 4.19905 4.25707 3.85633 3.9502C3.51377 3.64309 3.48497 3.11615 3.79188 2.77344C5.31646 1.07232 7.53377 0 9.99989 0Z" fill="var(--fill-0, #191919)"/>
</svg>
