<svg  viewBox="0 0 22 22" fill="none" xmlns="http://www.w3.org/2000/svg">
<path id="Icon" d="M4.75781 12.0303C5.29353 11.8965 5.8358 12.2221 5.96973 12.7578C6.10352 13.2935 5.77791 13.8358 5.24219 13.9697C2.98123 14.535 2 15.5169 2 17V19C2 19.5523 2.44772 20 3 20H19C19.5523 20 20 19.5523 20 19V17C20 15.5169 19.0188 14.535 16.7578 13.9697C16.2221 13.8358 15.8965 13.2935 16.0303 12.7578C16.1642 12.2221 16.7065 11.8965 17.2422 12.0303C20.3144 12.7983 22 14.4832 22 17V19C22 20.6569 20.6569 22 19 22H3C1.34315 22 0 20.6569 0 19V17C0 14.4832 1.6856 12.7983 4.75781 12.0303ZM11.1211 0C13.8824 0.000166983 16.1211 2.23868 16.1211 5C16.1211 5.32924 16.088 5.65762 16.0234 5.98047L15.5693 8.25391C15.1338 10.4318 13.2211 12 11 12C8.77895 12 6.86625 10.4318 6.43066 8.25391L5.97656 5.98047C5.43505 3.27273 7.19072 0.638285 9.89844 0.0966797C10.2212 0.0321267 10.5497 2.03411e-05 10.8789 0H11.1211ZM10.8789 2C10.6815 2.00002 10.4846 2.01988 10.291 2.05859C8.66648 2.3835 7.61284 3.96336 7.9375 5.58789L8.39258 7.8623C8.64128 9.10526 9.73239 10 11 10C12.2676 10 13.3587 9.10526 13.6074 7.8623L14.0625 5.58789C14.1012 5.39431 14.1211 5.19741 14.1211 5C14.1211 3.34325 12.7778 2.00017 11.1211 2H10.8789Z" fill="var(--fill-0, #191919)"/>
</svg>
