<svg  viewBox="0 0 20 20" fill="none" xmlns="http://www.w3.org/2000/svg">
<path id="Icon" d="M10 0C15.5228 0 20 4.47715 20 10C20 15.5228 15.5228 20 10 20C4.47715 20 0 15.5228 0 10C0 4.47715 4.47715 0 10 0ZM10 2C5.58172 2 2 5.58172 2 10C2 14.4183 5.58172 18 10 18C14.4183 18 18 14.4183 18 10C18 5.58172 14.4183 2 10 2ZM9.9082 12.1016C10.5441 12.1017 11.0723 12.6065 11.0723 13.2305C11.072 13.8662 10.5559 14.37 9.9082 14.3701C9.27227 14.3701 8.73253 13.8781 8.73242 13.2422C8.73242 12.6182 9.2602 12.1016 9.9082 12.1016ZM9.99219 5.52637C11.4201 5.52644 12.8241 6.25802 12.8242 7.92578C12.8242 8.98172 12.3084 9.4744 11.4805 10.1104C10.9646 10.5182 10.8321 10.7219 10.832 11.2256V11.5381H8.95996V11.082C8.95996 10.242 9.2842 9.83423 9.9082 9.28223L10.3037 8.91016C10.5797 8.67016 10.7959 8.42962 10.7959 8.05762C10.7957 7.55383 10.4598 7.21777 9.91992 7.21777C9.25996 7.21781 8.9117 7.758 8.8877 8.33398L6.98047 8.12988C7.16053 6.38999 8.45624 5.52637 9.99219 5.52637Z" fill="var(--fill-0, #191919)"/>
</svg>
