<svg  viewBox="0 0 16.8089 16.8089" fill="none" xmlns="http://www.w3.org/2000/svg">
<path id="Icon" d="M9.89891 0.732233C10.8752 -0.244077 12.4578 -0.244078 13.4341 0.732233L16.0766 3.37481C17.053 4.35112 17.053 5.93366 16.0766 6.90997L8.08934 14.8982C7.98254 15.005 7.84817 15.0813 7.70165 15.118L1.03465 16.784C0.750776 16.8548 0.450539 16.7721 0.243639 16.5652C0.0367417 16.3583 -0.0459564 16.0581 0.024889 15.7742L1.6909 9.10723C1.72754 8.96071 1.80383 8.82634 1.91063 8.71954L9.89891 0.732233ZM3.25243 9.73516L1.97801 14.8309L7.07372 13.5565L12.1548 8.4754L8.33348 4.65411L3.25243 9.73516ZM12.2554 1.90997C11.9299 1.58483 11.402 1.58463 11.0766 1.90997L9.51122 3.4754L13.3335 7.29766L14.8989 5.73223C15.2243 5.40689 15.2241 4.87898 14.8989 4.55352L12.2554 1.90997Z" fill="var(--fill-0, #191919)"/>
</svg>
