<svg  viewBox="0 0 3.59961 16.1992" fill="none" xmlns="http://www.w3.org/2000/svg">
<path id="Icon" d="M1.7998 12.5996C2.7918 12.5996 3.5995 13.4074 3.59961 14.3994C3.59961 15.3915 2.79186 16.1992 1.7998 16.1992C0.807748 16.1992 0 15.3915 0 14.3994C0.000106356 13.4074 0.807814 12.5996 1.7998 12.5996ZM1.7998 6.2998C2.79186 6.2998 3.59961 7.10755 3.59961 8.09961C3.59961 9.09167 2.79186 9.89941 1.7998 9.89941C0.807748 9.89941 0 9.09167 0 8.09961C1.73964e-07 7.10755 0.807749 6.2998 1.7998 6.2998ZM1.7998 0C2.79186 3.23688e-08 3.59961 0.807748 3.59961 1.7998C3.5995 2.79177 2.7918 3.59961 1.7998 3.59961C0.807813 3.59961 0.000106008 2.79177 0 1.7998C0 0.807748 0.807748 0 1.7998 0Z" fill="var(--fill-0, #949494)"/>
</svg>
