<svg  viewBox="0 0 15.8329 15.8329" fill="none" xmlns="http://www.w3.org/2000/svg">
<path id="Icon" d="M6.66602 0C10.3478 0 13.3328 2.98427 13.333 6.66602C13.333 8.20632 12.8108 9.62511 11.9336 10.7539L15.5889 14.4102C15.9143 14.7356 15.9143 15.2634 15.5889 15.5889C15.2634 15.9143 14.7356 15.9143 14.4102 15.5889L10.7539 11.9336C9.62511 12.8108 8.20632 13.333 6.66602 13.333C2.98427 13.3328 0 10.3478 0 6.66602C0.000176088 2.98438 2.98438 0.000176091 6.66602 0ZM6.66602 1.66602C3.90485 1.66619 1.66619 3.90485 1.66602 6.66602C1.66602 9.42733 3.90474 11.6658 6.66602 11.666C9.42744 11.666 11.666 9.42744 11.666 6.66602C11.6658 3.90474 9.42733 1.66602 6.66602 1.66602Z" fill="var(--fill-0, #949494)"/>
</svg>
