<svg  viewBox="0 0 20 20" fill="none" xmlns="http://www.w3.org/2000/svg">
<path id="Icon" d="M10 0C15.5228 0 20 4.47715 20 10C20 15.5228 15.5228 20 10 20C4.47715 20 0 15.5228 0 10C0 4.47715 4.47715 0 10 0ZM10 2C5.58172 2 2 5.58172 2 10C2 14.4183 5.58172 18 10 18C14.4183 18 18 14.4183 18 10C18 5.58172 14.4183 2 10 2ZM13.2598 6.82715C13.6313 6.41851 14.2642 6.38831 14.6729 6.75977C15.0815 7.13126 15.1117 7.76419 14.7402 8.17285L9.74023 13.6729C9.37815 14.0711 8.76553 14.1111 8.35449 13.7637L5.35449 11.2246C4.9329 10.8679 4.87962 10.237 5.23633 9.81543C5.59301 9.39389 6.2239 9.34169 6.64551 9.69824L8.90918 11.6133L13.2598 6.82715Z" fill="var(--fill-0, #191919)"/>
</svg>
