<svg  viewBox="0 0 20 20" fill="none" xmlns="http://www.w3.org/2000/svg">
<path id="Icon" d="M16 0C18.2091 0 20 1.79086 20 4C20 6.20914 18.2091 8 16 8C15.2582 8 14.5633 7.79818 13.9678 7.44629L7.44629 13.9678C7.79818 14.5633 8 15.2582 8 16C8 18.2091 6.20914 20 4 20C1.79086 20 0 18.2091 0 16C0 13.7909 1.79086 12 4 12C4.74181 12 5.43671 12.2018 6.03223 12.5537L12.5537 6.03223C12.2018 5.43671 12 4.74181 12 4C12 1.79086 13.7909 0 16 0ZM19 10C19.5523 10 20 10.4477 20 11V17C20 18.6569 18.6569 20 17 20H11C10.4477 20 10 19.5523 10 19C10 18.4477 10.4477 18 11 18H17C17.5523 18 18 17.5523 18 17V11C18 10.4477 18.4477 10 19 10ZM4 14C2.89543 14 2 14.8954 2 16C2 17.1046 2.89543 18 4 18C5.10457 18 6 17.1046 6 16C6 14.8954 5.10457 14 4 14ZM9 0C9.55229 0 10 0.447715 10 1C10 1.55228 9.55229 2 9 2H3C2.44772 2 2 2.44772 2 3V9C2 9.55229 1.55228 10 1 10C0.447715 10 0 9.55229 0 9V3C0 1.34315 1.34315 0 3 0H9ZM16 2C14.8954 2 14 2.89543 14 4C14 5.10457 14.8954 6 16 6C17.1046 6 18 5.10457 18 4C18 2.89543 17.1046 2 16 2Z" fill="var(--fill-0, #191919)"/>
</svg>
