<svg  viewBox="0 0 16.666 18.334" fill="none" xmlns="http://www.w3.org/2000/svg">
<path id="Icon" d="M8.33301 5.83398C9.71372 5.83398 10.833 6.95327 10.833 8.33398V15.834C10.8328 17.2145 9.71361 18.334 8.33301 18.334H2.5C1.1194 18.334 0.000175525 17.2145 0 15.834V8.33398C0 6.95327 1.11929 5.83398 2.5 5.83398H8.33301ZM2.5 7.5C2.03976 7.5 1.66602 7.87375 1.66602 8.33398V15.834C1.66619 16.2941 2.03987 16.667 2.5 16.667H8.33301C8.79314 16.667 9.16584 16.2941 9.16602 15.834V8.33398C9.16602 7.87375 8.79325 7.5 8.33301 7.5H2.5ZM14.166 0C15.5466 0 16.6658 1.11944 16.666 2.5V10C16.666 11.3807 15.5467 12.5 14.166 12.5H13.333C12.8728 12.5 12.5 12.1272 12.5 11.667C12.5 11.2068 12.8728 10.834 13.333 10.834H14.166C14.6263 10.834 15 10.4602 15 10V2.5C14.9998 2.03991 14.6261 1.66699 14.166 1.66699H8.33301C7.87288 1.66699 7.50018 2.03991 7.5 2.5V3.33398C7.49982 3.79407 7.12614 4.16699 6.66602 4.16699C6.20604 4.16682 5.83318 3.79396 5.83301 3.33398V2.5C5.83318 1.11944 6.9524 0 8.33301 0H14.166Z" fill="var(--fill-0, #191919)"/>
</svg>
