<svg viewBox="0 0 20 20" fill="none" xmlns="http://www.w3.org/2000/svg">
<path d="M12 0C13.6569 0 15 1.34315 15 3V4H19C19.5523 4 20 4.44772 20 5C20 5.55228 19.5523 6 19 6H18V17C18 18.6569 16.6569 20 15 20H5C3.34315 20 2 18.6569 2 17V6H1C0.447715 6 0 5.55228 0 5C0 4.44772 0.447715 4 1 4H5V3C5 1.34315 6.34315 0 8 0H12ZM4 17C4 17.5523 4.44772 18 5 18H15C15.5523 18 16 17.5523 16 17V6H4V17ZM8 8C8.55229 8 9 8.44771 9 9V15C9 15.5523 8.55229 16 8 16C7.44772 16 7 15.5523 7 15V9C7 8.44771 7.44772 8 8 8ZM12 8C12.5523 8 13 8.44771 13 9V15C13 15.5523 12.5523 16 12 16C11.4477 16 11 15.5523 11 15V9C11 8.44771 11.4477 8 12 8ZM8 2C7.44772 2 7 2.44772 7 3V4H13V3C13 2.44772 12.5523 2 12 2H8Z" fill="#d74b4b"/>
</svg>
