<svg  viewBox="0 0 20 20" fill="none" xmlns="http://www.w3.org/2000/svg">
<path id="Icon" d="M19 18C19.5523 18 20 18.4477 20 19C20 19.5523 19.5523 20 19 20H1C0.447715 20 0 19.5523 0 19C0 18.4477 0.447715 18 1 18H19ZM10 0C10.5523 0 11 0.447715 11 1V10.5859L13.293 8.29297C13.6835 7.90244 14.3165 7.90244 14.707 8.29297C15.0976 8.68349 15.0976 9.31651 14.707 9.70703L10.707 13.707C10.3165 14.0976 9.68349 14.0976 9.29297 13.707L5.29297 9.70703C4.90244 9.31651 4.90244 8.68349 5.29297 8.29297C5.68349 7.90244 6.31651 7.90244 6.70703 8.29297L9 10.5859V1C9 0.447715 9.44771 0 10 0Z" fill="var(--fill-0, #191919)"/>
</svg>
