<svg width="20" height="22" viewBox="0 0 20 22" fill="none" xmlns="http://www.w3.org/2000/svg">
<path d="M10 7C11.6569 7 13 8.34315 13 10V19C13 20.6569 11.6569 22 10 22H3C1.34315 22 0 20.6569 0 19V10C0 8.34315 1.34315 7 3 7H10ZM3 9C2.44772 9 2 9.44771 2 10V19C2 19.5523 2.44772 20 3 20H10C10.5523 20 11 19.5523 11 19V10C11 9.44771 10.5523 9 10 9H3ZM17 0C18.6569 0 20 1.34315 20 3V12C20 13.6569 18.6569 15 17 15H16C15.4477 15 15 14.5523 15 14C15 13.4477 15.4477 13 16 13H17C17.5523 13 18 12.5523 18 12V3C18 2.44772 17.5523 2 17 2H10C9.44771 2 9 2.44772 9 3V4C9 4.55228 8.55229 5 8 5C7.44772 5 7 4.55228 7 4V3C7 1.34315 8.34315 0 10 0H17Z" fill="#191919"/>
</svg>
