<svg  viewBox="0 0 18 20" fill="none" xmlns="http://www.w3.org/2000/svg">
<path id="Icon" d="M12.1719 0C12.9674 8.00519e-05 13.7304 0.316368 14.293 0.878906L17.1211 3.70703C17.6836 4.26957 17.9999 5.03258 18 5.82812V17C18 18.6569 16.6569 20 15 20H3C1.34315 20 0 18.6569 0 17V3C0 1.34315 1.34315 0 3 0H12.1719ZM3 2C2.44772 2 2 2.44772 2 3V17C2 17.5523 2.44772 18 3 18H15C15.5523 18 16 17.5523 16 17V8H13C11.3431 8 10 6.65685 10 5V2H3ZM12 13C12.5523 13 13 13.4477 13 14C13 14.5523 12.5523 15 12 15H6C5.44772 15 5 14.5523 5 14C5 13.4477 5.44772 13 6 13H12ZM8 9C8.55228 9 9 9.44771 9 10C9 10.5523 8.55228 11 8 11H6C5.44772 11 5 10.5523 5 10C5 9.44771 5.44772 9 6 9H8ZM12 5C12 5.55228 12.4477 6 13 6H16V5.82812C15.9999 5.56302 15.8945 5.30856 15.707 5.12109L12.8789 2.29297C12.6914 2.1055 12.437 2.00008 12.1719 2H12V5Z" fill="var(--fill-0, #191919)"/>
</svg>
